<svg xmlns="http://www.w3.org/2000/svg" viewBox="0 0 512 512" width="512" height="512">
  <g transform="translate(256 256) scale(5.12)"><path d="M0,-14 C8,-14 11.5,-5 6,6 C4,10 2,13 0,16 C-2,13 -4,10 -6,6 C-11.5,-5 -8,-14 0,-14 Z" transform="rotate(0) translate(0 -23) scale(.86)" fill="#1C1A17"></path><path d="M0,-14 C8,-14 11.5,-5 6,6 C4,10 2,13 0,16 C-2,13 -4,10 -6,6 C-11.5,-5 -8,-14 0,-14 Z" transform="rotate(72) translate(0 -23) scale(.86)" fill="#1C1A17"></path><path d="M0,-14 C8,-14 11.5,-5 6,6 C4,10 2,13 0,16 C-2,13 -4,10 -6,6 C-11.5,-5 -8,-14 0,-14 Z" transform="rotate(144) translate(0 -23) scale(.86)" fill="#1C1A17"></path><path d="M0,-14 C8,-14 11.5,-5 6,6 C4,10 2,13 0,16 C-2,13 -4,10 -6,6 C-11.5,-5 -8,-14 0,-14 Z" transform="rotate(216) translate(0 -23) scale(.86)" fill="#1C1A17"></path><path d="M0,-14 C8,-14 11.5,-5 6,6 C4,10 2,13 0,16 C-2,13 -4,10 -6,6 C-11.5,-5 -8,-14 0,-14 Z" transform="rotate(288) translate(0 -23) scale(.86)" fill="#1C1A17"></path><circle r="3.2" fill="#1C1A17"></circle></g>
</svg>