<svg xmlns="http://www.w3.org/2000/svg" viewBox="0 0 1024 1024" width="1024" height="1024">
  <path d="M1024 512 C1024 587.58 1023.42 689.06 1022.24 738.75 C1021.07 788.45 1019.32 789.85 1016.95 810.17 C1014.58 830.49 1011.64 845.69 1008.04 860.66 C1004.44 875.64 1000.26 888.17 995.37 900.02 C990.49 911.88 985 922.19 978.72 931.81 C972.45 941.42 965.54 949.9 957.72 957.72 C949.9 965.54 941.42 972.45 931.81 978.72 C922.19 985 911.88 990.49 900.02 995.37 C888.17 1000.26 875.64 1004.44 860.66 1008.04 C845.69 1011.64 830.49 1014.58 810.17 1016.95 C789.85 1019.32 788.45 1021.07 738.75 1022.24 C689.06 1023.42 587.58 1024 512 1024 C436.42 1024 334.94 1023.42 285.25 1022.24 C235.55 1021.07 234.15 1019.32 213.83 1016.95 C193.51 1014.58 178.31 1011.64 163.34 1008.04 C148.36 1004.44 135.83 1000.26 123.98 995.37 C112.12 990.49 101.81 985 92.19 978.72 C82.58 972.45 74.1 965.54 66.28 957.72 C58.46 949.9 51.55 941.42 45.28 931.81 C39 922.19 33.51 911.88 28.63 900.02 C23.74 888.17 19.56 875.64 15.96 860.66 C12.36 845.69 9.42 830.49 7.05 810.17 C4.68 789.85 2.93 788.45 1.76 738.75 C0.58 689.06 0 587.58 0 512 C0 436.42 0.58 334.94 1.76 285.25 C2.93 235.55 4.68 234.15 7.05 213.83 C9.42 193.51 12.36 178.31 15.96 163.34 C19.56 148.36 23.74 135.83 28.63 123.98 C33.51 112.12 39 101.81 45.28 92.19 C51.55 82.58 58.46 74.1 66.28 66.28 C74.1 58.46 82.58 51.55 92.19 45.28 C101.81 39 112.12 33.51 123.98 28.63 C135.83 23.74 148.36 19.56 163.34 15.96 C178.31 12.36 193.51 9.42 213.83 7.05 C234.15 4.68 235.55 2.93 285.25 1.76 C334.94 0.58 436.42 0 512 0 C587.58 0 689.06 0.58 738.75 1.76 C788.45 2.93 789.85 4.68 810.17 7.05 C830.49 9.42 845.69 12.36 860.66 15.96 C875.64 19.56 888.17 23.74 900.02 28.63 C911.88 33.51 922.19 39 931.81 45.28 C941.42 51.55 949.9 58.46 957.72 66.28 C965.54 74.1 972.45 82.58 978.72 92.19 C985 101.81 990.49 112.12 995.37 123.98 C1000.26 135.83 1004.44 148.36 1008.04 163.34 C1011.64 178.31 1014.58 193.51 1016.95 213.83 C1019.32 234.15 1021.07 235.55 1022.24 285.25 C1023.42 334.94 1024 436.42 1024 512 Z" fill="#C5453A"></path>
  <g transform="translate(512 532) scale(10.24)"><path d="M0,-14 C8,-14 11.5,-5 6,6 C4,10 2,13 0,16 C-2,13 -4,10 -6,6 C-11.5,-5 -8,-14 0,-14 Z" transform="rotate(0) translate(0 -23) scale(.86)" fill="#F6ECD0"></path><path d="M0,-14 C8,-14 11.5,-5 6,6 C4,10 2,13 0,16 C-2,13 -4,10 -6,6 C-11.5,-5 -8,-14 0,-14 Z" transform="rotate(72) translate(0 -23) scale(.86)" fill="#F6ECD0"></path><path d="M0,-14 C8,-14 11.5,-5 6,6 C4,10 2,13 0,16 C-2,13 -4,10 -6,6 C-11.5,-5 -8,-14 0,-14 Z" transform="rotate(144) translate(0 -23) scale(.86)" fill="#F6ECD0"></path><path d="M0,-14 C8,-14 11.5,-5 6,6 C4,10 2,13 0,16 C-2,13 -4,10 -6,6 C-11.5,-5 -8,-14 0,-14 Z" transform="rotate(216) translate(0 -23) scale(.86)" fill="#F6ECD0"></path><path d="M0,-14 C8,-14 11.5,-5 6,6 C4,10 2,13 0,16 C-2,13 -4,10 -6,6 C-11.5,-5 -8,-14 0,-14 Z" transform="rotate(288) translate(0 -23) scale(.86)" fill="#F6ECD0"></path><circle r="3.2" fill="#ffffff"></circle></g>
</svg>