<svg xmlns="http://www.w3.org/2000/svg" viewBox="0 0 100 100" width="100" height="100"><g transform="translate(50,50)" fill="#5E4029"><path d="M0,-14 C8,-14 11.5,-5 6,6 C4,10 2,13 0,16 C-2,13 -4,10 -6,6 C-11.5,-5 -8,-14 0,-14 Z" transform="rotate(0) translate(0,-25) scale(.92)"></path><path d="M0,-14 C8,-14 11.5,-5 6,6 C4,10 2,13 0,16 C-2,13 -4,10 -6,6 C-11.5,-5 -8,-14 0,-14 Z" transform="rotate(72) translate(0,-25) scale(.92)"></path><path d="M0,-14 C8,-14 11.5,-5 6,6 C4,10 2,13 0,16 C-2,13 -4,10 -6,6 C-11.5,-5 -8,-14 0,-14 Z" transform="rotate(144) translate(0,-25) scale(.92)"></path><path d="M0,-14 C8,-14 11.5,-5 6,6 C4,10 2,13 0,16 C-2,13 -4,10 -6,6 C-11.5,-5 -8,-14 0,-14 Z" transform="rotate(216) translate(0,-25) scale(.92)"></path><path d="M0,-14 C8,-14 11.5,-5 6,6 C4,10 2,13 0,16 C-2,13 -4,10 -6,6 C-11.5,-5 -8,-14 0,-14 Z" transform="rotate(288) translate(0,-25) scale(.92)"></path><circle r="3.4"></circle></g></svg>